<svg width="52" height="47" viewBox="0 0 52 47" fill="none" xmlns="http://www.w3.org/2000/svg">
<path d="M30.833 23.827C30.8422 24.4689 30.7238 25.1063 30.4845 25.702C30.2452 26.2977 29.8899 26.8399 29.4392 27.2971C28.9886 27.7543 28.4515 28.1174 27.8593 28.3652C27.2671 28.613 26.6315 28.7406 25.9895 28.7406C25.3475 28.7406 24.7119 28.613 24.1197 28.3652C23.5275 28.1174 22.9904 27.7543 22.5398 27.2971C22.0891 26.8399 21.7338 26.2977 21.4945 25.702C21.2552 25.1063 21.1368 24.4689 21.146 23.827C21.1643 22.5545 21.6826 21.3403 22.589 20.4469C23.4953 19.5534 24.7168 19.0526 25.9895 19.0526C27.2622 19.0526 28.4837 19.5534 29.39 20.4469C30.2964 21.3403 30.8147 22.5545 30.833 23.827Z" fill="#ffffff"/>
<path d="M52 23.827C52 20.382 47.686 17.117 41.072 15.093C42.599 8.352 41.92 2.988 38.931 1.271C38.242 0.868 37.437 0.677999 36.557 0.677999V3.041C37.045 3.041 37.437 3.137 37.765 3.317C39.207 4.144 39.832 7.292 39.345 11.341C39.2148 12.3877 39.0342 13.4276 38.804 14.457C36.5885 13.9228 34.3399 13.5369 32.073 13.302C30.7234 11.4388 29.2504 9.66821 27.664 8.002C31.12 4.79 34.363 3.031 36.568 3.031V0.667C33.653 0.667 29.837 2.745 25.979 6.348C22.121 2.766 18.305 0.709 15.39 0.709V3.073C17.584 3.073 20.838 4.822 24.294 8.012C22.7156 9.6733 21.2528 11.4408 19.916 13.302C17.521 13.556 15.252 13.948 13.175 14.467C12.9412 13.4523 12.7573 12.4267 12.624 11.394C12.125 7.345 12.74 4.197 14.171 3.359C14.489 3.169 14.902 3.084 15.39 3.084V0.719999C14.5 0.719999 13.694 0.910999 12.995 1.314C10.016 3.031 9.348 8.383 10.885 15.103C4.292 17.139 0 20.393 0 23.827C0 27.272 4.314 30.536 10.928 32.561C9.401 39.302 10.08 44.665 13.069 46.382C13.758 46.785 14.563 46.976 15.454 46.976C18.368 46.976 22.184 44.898 26.042 41.294C29.901 44.877 33.716 46.933 36.631 46.933C37.522 46.933 38.327 46.743 39.027 46.34C42.005 44.623 42.673 39.27 41.136 32.55C47.708 30.526 52 27.261 52 23.827ZM38.2 16.757C37.7879 18.174 37.3104 19.5712 36.769 20.944C36.3307 20.0827 35.8676 19.2344 35.38 18.4C34.893 17.5602 34.3841 16.7333 33.854 15.92C35.359 16.142 36.811 16.418 38.2 16.757ZM33.345 28.045C32.5517 29.4304 31.6996 30.7813 30.791 32.094C29.212 32.232 27.611 32.306 26 32.306C24.4 32.306 22.799 32.232 21.23 32.105C20.3208 30.7976 19.4651 29.4538 18.665 28.077C17.8699 26.7034 17.1346 25.2961 16.461 23.859C17.1311 22.4181 17.8631 21.0067 18.655 19.629C19.4485 18.2437 20.3006 16.8928 21.209 15.58C22.8022 15.4403 24.4007 15.3696 26 15.368C27.601 15.368 29.201 15.443 30.77 15.57C31.6794 16.8772 32.5351 18.221 33.335 19.598C34.1301 20.9716 34.8654 22.3789 35.539 23.816C34.8649 25.2546 34.133 26.6655 33.345 28.045ZM36.769 26.667C37.3252 28.0486 37.8134 29.4567 38.232 30.886C36.7903 31.2362 35.333 31.5192 33.865 31.734C34.3942 30.9093 34.9031 30.0717 35.391 29.222C35.879 28.374 36.334 27.515 36.769 26.667ZM26.021 37.977C24.9815 36.8976 23.9982 35.7654 23.075 34.585C24.0457 34.631 25.0172 34.6557 25.989 34.659C26.986 34.659 27.971 34.638 28.936 34.585C28.026 35.7672 27.0529 36.8995 26.021 37.977ZM18.135 31.734C16.6745 31.5221 15.2246 31.2425 13.79 30.896C14.2016 29.4793 14.6788 28.0824 15.22 26.71C15.655 27.558 16.111 28.406 16.609 29.254C17.1006 30.091 17.6094 30.9179 18.135 31.734ZM25.968 9.677C27.0081 10.7558 27.9917 11.8877 28.915 13.068C27.944 13.0219 26.9721 12.9973 26 12.994C25.004 12.994 24.018 13.015 23.053 13.068C23.9628 11.8859 24.9358 10.7539 25.968 9.677ZM18.125 15.92C17.0725 17.5552 16.103 19.2424 15.22 20.975C14.664 19.5937 14.1761 18.1861 13.758 16.757C15.2008 16.4147 16.6579 16.1354 18.125 15.92ZM8.532 29.19C4.78 27.589 2.353 25.491 2.353 23.827C2.353 22.163 4.78 20.053 8.532 18.463C9.493 18.0596 10.4728 17.7025 11.468 17.393C12.1163 19.5961 12.9132 21.7527 13.853 23.848C12.9238 25.9331 12.1376 28.0791 11.5 30.271C10.4935 29.9596 9.503 29.5988 8.532 29.19ZM14.235 44.337C12.793 43.51 12.168 40.362 12.655 36.313C12.772 35.316 12.963 34.267 13.196 33.197C15.4116 33.7307 17.6602 34.1166 19.927 34.352C21.2769 36.215 22.7498 37.9856 24.336 39.652C20.881 42.863 17.637 44.623 15.432 44.623C14.955 44.612 14.553 44.517 14.235 44.337ZM39.376 36.26C39.875 40.309 39.26 43.457 37.829 44.294C37.511 44.485 37.098 44.57 36.61 44.57C34.416 44.57 31.162 42.821 27.707 39.63C29.285 37.969 30.7474 36.2019 32.084 34.341C34.48 34.087 36.748 33.695 38.825 33.175C39.069 34.246 39.26 35.274 39.376 36.26ZM43.457 29.19C42.546 29.582 41.549 29.932 40.521 30.261C39.8728 28.0579 39.076 25.9013 38.136 23.806C39.0657 21.7207 39.8518 19.5744 40.489 17.382C41.539 17.711 42.535 18.071 43.468 18.463C47.22 20.064 49.647 22.163 49.647 23.827C49.637 25.491 47.209 27.6 43.457 29.19Z" fill="#ffffff"/>
</svg>
